<?xml version="1.0" encoding="utf-8"?>
<!-- Generator: Adobe Illustrator 22.1.0, SVG Export Plug-In . SVG Version: 6.00 Build 0)  -->
<svg version="1.1" id="Calque_1" xmlns="http://www.w3.org/2000/svg" xmlns:xlink="http://www.w3.org/1999/xlink" x="0px" y="0px"
	 viewBox="0 0 10.5 14" style="enable-background:new 0 0 10.5 14;" xml:space="preserve">
<style type="text/css">
	.st0{fill:#fd868c;}
	.st1{fill:#FFFFFF;}
</style>
<g>
	<path class="st0" d="M5.3,13c0.1,0,0.2,0,0.3-0.1c0,0,0.1-0.1,0.1-0.1L9.1,8c1.4-2.1,0.8-4.9-1.3-6.2C7,1.2,6.1,1,5.3,1
		C3.8,1,2.3,1.7,1.5,3.1c-1,1.5-1,3.4,0,4.9l0,0l3.4,4.9C4.9,13,5.1,13,5.3,13z"/>
	<path class="st1" d="M5.3,1C6.1,1,7,1.2,7.7,1.7C9.8,3.1,10.4,5.9,9.1,8l-3.4,4.9c0,0-0.1,0.1-0.1,0.1C5.5,13,5.4,13,5.3,13
		c-0.2,0-0.3-0.1-0.4-0.2L1.5,8l0,0c-1-1.5-1-3.4,0-4.9C2.3,1.7,3.8,1,5.3,1 M5.3,0.5C3.6,0.5,2,1.4,1.1,2.8C0,4.5,0,6.6,1.1,8.2
		l3.4,4.9c0.2,0.3,0.5,0.4,0.8,0.4c0.2,0,0.4-0.1,0.6-0.2c0.1-0.1,0.2-0.2,0.3-0.3l3.3-4.7l0.1-0.1l0,0l0,0C11,5.9,10.3,2.8,8,1.3
		C7.2,0.8,6.2,0.5,5.3,0.5L5.3,0.5z"/>
</g>
</svg>
